<svg xmlns="http://www.w3.org/2000/svg" width="800" height="500" viewBox="0 0 800 500">
  <defs>
    <linearGradient id="bg" x1="0" y1="0" x2="1" y2="1">
      <stop offset="0%" stop-color="#fef7ef" />
      <stop offset="55%" stop-color="#f5e3c8" />
      <stop offset="100%" stop-color="rgb(184,101,112)" />
    </linearGradient>
    <linearGradient id="shine" x1="0" y1="0" x2="0" y2="1">
      <stop offset="0%" stop-color="#ffffff" stop-opacity="0.6" />
      <stop offset="100%" stop-color="#ffffff" stop-opacity="0" />
    </linearGradient>
  </defs>
  <rect width="800" height="500" fill="url(#bg)" />
  <circle cx="692.7205243724409" cy="63.19863089254451" r="45.08414504440124" fill="#ffffff" opacity="0.22952749434219075" /><circle cx="292.34172382820003" cy="100.11213453457333" r="48.77540035100384" fill="#ffffff" opacity="0.14456791563885793" /><circle cx="327.691583767763" cy="320.2833452515528" r="47.44536022483732" fill="#ffffff" opacity="0.16562821940640454" /><circle cx="752.1074936094051" cy="320.30385909020526" r="40.9389637602213" fill="#ffffff" opacity="0.29862370065777677" /><circle cx="286.24048793152866" cy="277.0149014557069" r="30.062116506843914" fill="#ffffff" opacity="0.1388038905220892" /><circle cx="538.5155375361536" cy="355.8828244622798" r="40.81971238647495" fill="#ffffff" opacity="0.2088453440975927" /><circle cx="479.11621601800266" cy="350.455051842413" r="55.23569141813229" fill="#ffffff" opacity="0.2766582070669341" /><circle cx="174.13537335636502" cy="341.4908566057257" r="44.87576196975871" fill="#ffffff" opacity="0.126957479223011" />
  <circle cx="400" cy="230" r="130" fill="#ffffff" opacity="0.25" />
  <circle cx="400" cy="230" r="96" fill="#ffffff" opacity="0.35" />
  <ellipse cx="400" cy="230" rx="72" ry="52" fill="rgb(248,137,152)" opacity="0.85" />
  <rect x="340" y="176" width="120" height="16" rx="8" fill="#ffffff" opacity="0.8" transform="rotate(-18 400 230)" />
  <rect x="400" y="230" width="150" height="20" rx="10" fill="#ffffff" opacity="0.9" transform="rotate(18 475 240)" />
  <rect width="800" height="180" y="320" fill="url(#shine)" />
  <text x="400" y="395" text-anchor="middle" font-family="Cairo, Arial, sans-serif" font-size="34" font-weight="700" fill="#3c2a20" textLength="560" lengthAdjust="spacingAndGlyphs">مكسرات مشكلة فاخرة</text>
  <text x="400" y="445" text-anchor="middle" font-family="Cairo, Arial, sans-serif" font-size="20" font-weight="500" fill="#6c4a33" opacity="0.8">Vanilliano</text>
  <text x="400" y="60" text-anchor="middle" font-family="Cairo, Arial, sans-serif" font-size="16" fill="#6c4a33" opacity="0.5" letter-spacing="4">vanilliano.com</text>
</svg>