<svg xmlns="http://www.w3.org/2000/svg" width="800" height="500" viewBox="0 0 800 500">
  <defs>
    <linearGradient id="bg" x1="0" y1="0" x2="1" y2="1">
      <stop offset="0%" stop-color="#fffdfa" />
      <stop offset="55%" stop-color="#f9e8dc" />
      <stop offset="100%" stop-color="rgb(194,139,67)" />
    </linearGradient>
    <linearGradient id="shine" x1="0" y1="0" x2="0" y2="1">
      <stop offset="0%" stop-color="#ffffff" stop-opacity="0.6" />
      <stop offset="100%" stop-color="#ffffff" stop-opacity="0" />
    </linearGradient>
  </defs>
  <rect width="800" height="500" fill="url(#bg)" />
  <circle cx="706.9216791137526" cy="312.6749271395497" r="47.41054403380172" fill="#ffffff" opacity="0.2657186797454741" /><circle cx="33.08123670611221" cy="251.68713713617123" r="47.672102457449654" fill="#ffffff" opacity="0.17874102339926393" /><circle cx="473.27552374907174" cy="351.86773134167686" r="42.06102231857061" fill="#ffffff" opacity="0.14077164929226005" /><circle cx="397.0800617541896" cy="139.4554734074822" r="18.64332858416042" fill="#ffffff" opacity="0.254056054155146" /><circle cx="485.31860249114266" cy="402.4524544984165" r="48.99344811881611" fill="#ffffff" opacity="0.2461607210128738" /><circle cx="319.73838495635977" cy="300.51111211732564" r="34.296750502451374" fill="#ffffff" opacity="0.23378255639240209" /><circle cx="547.0692182313093" cy="111.62308991140934" r="19.378918556434524" fill="#ffffff" opacity="0.14084327933855142" /><circle cx="566.6891959766657" cy="259.86007644816345" r="36.600946902231954" fill="#ffffff" opacity="0.19042550541884684" />
  <circle cx="400" cy="230" r="130" fill="#ffffff" opacity="0.25" />
  <circle cx="400" cy="230" r="96" fill="#ffffff" opacity="0.35" />
  <ellipse cx="400" cy="230" rx="72" ry="52" fill="rgb(255,189,91)" opacity="0.85" />
  <rect x="340" y="176" width="120" height="16" rx="8" fill="#ffffff" opacity="0.8" transform="rotate(-18 400 230)" />
  <rect x="400" y="230" width="150" height="20" rx="10" fill="#ffffff" opacity="0.9" transform="rotate(18 475 240)" />
  <rect width="800" height="180" y="320" fill="url(#shine)" />
  <text x="400" y="395" text-anchor="middle" font-family="Cairo, Arial, sans-serif" font-size="34" font-weight="700" fill="#3c2a20" textLength="560" lengthAdjust="spacingAndGlyphs">لوز محمص مقشر</text>
  <text x="400" y="445" text-anchor="middle" font-family="Cairo, Arial, sans-serif" font-size="20" font-weight="500" fill="#6c4a33" opacity="0.8">Vanilliano</text>
  <text x="400" y="60" text-anchor="middle" font-family="Cairo, Arial, sans-serif" font-size="16" fill="#6c4a33" opacity="0.5" letter-spacing="4">vanilliano.com</text>
</svg>