<svg xmlns="http://www.w3.org/2000/svg" width="800" height="500" viewBox="0 0 800 500">
  <defs>
    <linearGradient id="bg" x1="0" y1="0" x2="1" y2="1">
      <stop offset="0%" stop-color="#fcf5f6" />
      <stop offset="55%" stop-color="#f2cfd4" />
      <stop offset="100%" stop-color="rgb(168,66,82)" />
    </linearGradient>
    <linearGradient id="shine" x1="0" y1="0" x2="0" y2="1">
      <stop offset="0%" stop-color="#ffffff" stop-opacity="0.45" />
      <stop offset="100%" stop-color="#ffffff" stop-opacity="0" />
    </linearGradient>
  </defs>
  <rect width="800" height="500" fill="url(#bg)" />
  <circle cx="100" cy="90" r="40" fill="#ffffff" opacity="0.12" />
  <circle cx="700" cy="420" r="55" fill="#ffffff" opacity="0.12" />
  <circle cx="620" cy="80" r="25" fill="#ffffff" opacity="0.15" />
  <circle cx="150" cy="410" r="30" fill="#ffffff" opacity="0.12" />
  <circle cx="400" cy="228" r="120" fill="#ffffff" opacity="0.2" />
  <circle cx="400" cy="228" r="84" fill="#ffffff" opacity="0.3" />
  <rect x="290" y="206" width="220" height="26" rx="12" fill="#8e273d" />
  <rect x="302" y="232" width="196" height="16" rx="5" fill="#f0b45a" />
  <ellipse cx="400" cy="206" rx="70" ry="9" fill="#fdf6f0" opacity="0.85" />
  <rect x="300" y="266" width="200" height="118" rx="18" fill="#fff8f0" stroke="#e0c4aa" stroke-width="3" />
  <rect x="300" y="300" width="200" height="34" fill="#f2d6d9" />
  <circle cx="330" cy="318" r="27" fill="#8e273d" />
  <text x="330" y="325" text-anchor="middle" font-family="Cairo, Arial, sans-serif" font-size="24" font-weight="900" fill="#ffffff">10 ك</text>
  <path transform="translate(362 305) scale(2.1)" fill="#8e273d" d="M12 21s-6.7-4.3-9.3-8.3C1.9 10.7 1 8.5 1 6.5 1 3.5 3.4 1 6.4 1c2 0 3.8 1 4.9 2.6C12.4 2 14.2 1 16.2 1 19.2 1 21.6 3.5 21.6 6.5c0 2-.9 4.2-1.7 6.2C17.4 16.7 12 21 12 21z" />
  <rect width="800" height="170" y="330" fill="url(#shine)" />
  <text x="400" y="398" text-anchor="middle" font-family="Cairo, Arial, sans-serif" font-size="34" font-weight="700" fill="#3c2a20" textLength="560" lengthAdjust="spacingAndGlyphs">كريمة خام 10 كيلو</text>
  <text x="400" y="448" text-anchor="middle" font-family="Cairo, Arial, sans-serif" font-size="20" font-weight="500" fill="#6c4a33" opacity="0.8">Vanilliano</text>
  <text x="400" y="62" text-anchor="middle" font-family="Cairo, Arial, sans-serif" font-size="16" fill="#6c4a33" opacity="0.5" letter-spacing="4">vanilliano.com</text>
</svg>