<svg xmlns="http://www.w3.org/2000/svg" width="800" height="500" viewBox="0 0 800 500">
  <defs>
    <linearGradient id="bg" x1="0" y1="0" x2="1" y2="1">
      <stop offset="0%" stop-color="#fffdfa" />
      <stop offset="55%" stop-color="#f9e8dc" />
      <stop offset="100%" stop-color="rgb(194,139,67)" />
    </linearGradient>
    <linearGradient id="shine" x1="0" y1="0" x2="0" y2="1">
      <stop offset="0%" stop-color="#ffffff" stop-opacity="0.6" />
      <stop offset="100%" stop-color="#ffffff" stop-opacity="0" />
    </linearGradient>
  </defs>
  <rect width="800" height="500" fill="url(#bg)" />
  <circle cx="519.6373539350293" cy="251.57191136381383" r="26.92816558358988" fill="#ffffff" opacity="0.18237441916082353" /><circle cx="719.974495390208" cy="190.19424518402806" r="25.379518192712762" fill="#ffffff" opacity="0.13544753830531642" /><circle cx="339.01553124642373" cy="49.035114996855356" r="53.96337401196733" fill="#ffffff" opacity="0.17321429076093528" /><circle cx="46.83468859548798" cy="183.48924199265352" r="21.866167394253413" fill="#ffffff" opacity="0.18437010124883713" /><circle cx="76.82177591558931" cy="172.90584801940693" r="32.528287826816864" fill="#ffffff" opacity="0.1805332607116254" /><circle cx="33.909785346924366" cy="410.50938200315517" r="21.644329827738865" fill="#ffffff" opacity="0.2906745215271394" /><circle cx="534.1772516774332" cy="189.33349159221123" r="41.08865035088084" fill="#ffffff" opacity="0.21367354235679417" /><circle cx="214.87915718853003" cy="314.70761695872517" r="45.79480427770355" fill="#ffffff" opacity="0.28383361801154217" />
  <circle cx="400" cy="230" r="130" fill="#ffffff" opacity="0.25" />
  <circle cx="400" cy="230" r="96" fill="#ffffff" opacity="0.35" />
  <ellipse cx="400" cy="230" rx="72" ry="52" fill="rgb(255,189,91)" opacity="0.85" />
  <rect x="340" y="176" width="120" height="16" rx="8" fill="#ffffff" opacity="0.8" transform="rotate(-18 400 230)" />
  <rect x="400" y="230" width="150" height="20" rx="10" fill="#ffffff" opacity="0.9" transform="rotate(18 475 240)" />
  <rect width="800" height="180" y="320" fill="url(#shine)" />
  <text x="400" y="395" text-anchor="middle" font-family="Cairo, Arial, sans-serif" font-size="34" font-weight="700" fill="#3c2a20" textLength="560" lengthAdjust="spacingAndGlyphs">كاكاو بودرة غامق فاخر</text>
  <text x="400" y="445" text-anchor="middle" font-family="Cairo, Arial, sans-serif" font-size="20" font-weight="500" fill="#6c4a33" opacity="0.8">Vanilliano</text>
  <text x="400" y="60" text-anchor="middle" font-family="Cairo, Arial, sans-serif" font-size="16" fill="#6c4a33" opacity="0.5" letter-spacing="4">vanilliano.com</text>
</svg>