<svg xmlns="http://www.w3.org/2000/svg" width="800" height="500" viewBox="0 0 800 500"><defs><linearGradient id="bg" x1="0" y1="0" x2="1" y2="1"><stop offset="0%" stop-color="#fcf5f6"/><stop offset="55%" stop-color="#f2cfd4"/><stop offset="100%" stop-color="rgb(168,66,82)"/></linearGradient><linearGradient id="shine" x1="0" y1="0" x2="0" y2="1"><stop offset="0%" stop-color="#ffffff" stop-opacity="0.45"/><stop offset="100%" stop-color="#ffffff" stop-opacity="0"/></linearGradient></defs><rect width="800" height="500" fill="url(#bg)"/><circle cx="100" cy="90" r="40" fill="#fff" opacity=".12"/><circle cx="700" cy="420" r="55" fill="#fff" opacity=".12"/><circle cx="620" cy="80" r="25" fill="#fff" opacity=".15"/><circle cx="150" cy="410" r="30" fill="#fff" opacity=".12"/><circle cx="400" cy="228" r="120" fill="#fff" opacity=".22"/><circle cx="400" cy="228" r="84" fill="#fff" opacity=".32"/><rect x="350" y="220" width="100" height="30" rx="15" fill="#8e273d"/><rect x="340" y="228" width="20" height="14" rx="4" fill="#d4af37"/><g><circle cx="330" cy="190" r="5" fill="#e0393e"/><circle cx="310" cy="200" r="4" fill="#3498db"/><circle cx="320" cy="175" r="4" fill="#f39c12"/><circle cx="340" cy="170" r="3" fill="#2ecc71"/><circle cx="305" cy="185" r="3" fill="#9b59b6"/><rect x="315" y="195" width="8" height="3" rx="1" fill="#d4af37"/><rect x="325" y="180" width="6" height="3" rx="1" fill="#e0393e"/></g><rect width="800" height="170" y="330" fill="url(#shine)"/><text x="400" y="398" text-anchor="middle" font-family="Cairo, Arial, sans-serif" font-size="34" font-weight="700" fill="#3c2a20" textLength="560" lengthAdjust="spacingAndGlyphs">مدفع كونفيتي - 30 سم</text><text x="400" y="448" text-anchor="middle" font-family="Cairo, Arial, sans-serif" font-size="20" font-weight="500" fill="#6c4a33" opacity=".8">Vanilliano</text><text x="400" y="62" text-anchor="middle" font-family="Cairo, Arial, sans-serif" font-size="16" fill="#6c4a33" opacity=".5" letter-spacing="4">vanilliano.com</text></svg>
