<svg xmlns="http://www.w3.org/2000/svg" width="800" height="500" viewBox="0 0 800 500">
  <defs>
    <linearGradient id="bg" x1="0" y1="0" x2="1" y2="1">
      <stop offset="0%" stop-color="#faf6f0" />
      <stop offset="55%" stop-color="#eaddd0" />
      <stop offset="100%" stop-color="rgb(139,76,27)" />
    </linearGradient>
    <linearGradient id="shine" x1="0" y1="0" x2="0" y2="1">
      <stop offset="0%" stop-color="#ffffff" stop-opacity="0.6" />
      <stop offset="100%" stop-color="#ffffff" stop-opacity="0" />
    </linearGradient>
  </defs>
  <rect width="800" height="500" fill="url(#bg)" />
  <circle cx="93.19770599665969" cy="162.00681497865335" r="49.125464956978355" fill="#ffffff" opacity="0.17792092577284532" /><circle cx="252.89274620574201" cy="158.32131328112814" r="39.377445182592" fill="#ffffff" opacity="0.2600819088970608" /><circle cx="54.149263462342745" cy="285.0933305630449" r="37.65341419710675" fill="#ffffff" opacity="0.28482071325397806" /><circle cx="418.36007180861696" cy="445.45603280838975" r="35.835834792709875" fill="#ffffff" opacity="0.2683626012486331" /><circle cx="196.8396337586291" cy="222.6245306821763" r="47.44193887759275" fill="#ffffff" opacity="0.2640282826245223" /><circle cx="123.93244690723645" cy="205.4464826405374" r="33.91162121718473" fill="#ffffff" opacity="0.12230545735262069" /><circle cx="326.6127761837986" cy="268.7369100172222" r="28.588504440461776" fill="#ffffff" opacity="0.2359563906229053" /><circle cx="154.26915228061102" cy="327.41890613223353" r="26.894850968690058" fill="#ffffff" opacity="0.26284102495747586" />
  <circle cx="400" cy="230" r="130" fill="#ffffff" opacity="0.25" />
  <circle cx="400" cy="230" r="96" fill="#ffffff" opacity="0.35" />
  <ellipse cx="400" cy="230" rx="72" ry="52" fill="rgb(187,102,37)" opacity="0.85" />
  <rect x="340" y="176" width="120" height="16" rx="8" fill="#ffffff" opacity="0.8" transform="rotate(-18 400 230)" />
  <rect x="400" y="230" width="150" height="20" rx="10" fill="#ffffff" opacity="0.9" transform="rotate(18 475 240)" />
  <rect width="800" height="180" y="320" fill="url(#shine)" />
  <text x="400" y="395" text-anchor="middle" font-family="Cairo, Arial, sans-serif" font-size="34" font-weight="700" fill="#3c2a20" textLength="560" lengthAdjust="spacingAndGlyphs">جيلي الديدان الصغيرة</text>
  <text x="400" y="445" text-anchor="middle" font-family="Cairo, Arial, sans-serif" font-size="20" font-weight="500" fill="#6c4a33" opacity="0.8">Vanilliano</text>
  <text x="400" y="60" text-anchor="middle" font-family="Cairo, Arial, sans-serif" font-size="16" fill="#6c4a33" opacity="0.5" letter-spacing="4">vanilliano.com</text>
</svg>