<svg xmlns="http://www.w3.org/2000/svg" width="800" height="500" viewBox="0 0 800 500">
  <defs>
    <linearGradient id="bg" x1="0" y1="0" x2="1" y2="1">
      <stop offset="0%" stop-color="#fef7ef" />
      <stop offset="55%" stop-color="#f5e3c8" />
      <stop offset="100%" stop-color="rgb(184,101,112)" />
    </linearGradient>
    <linearGradient id="shine" x1="0" y1="0" x2="0" y2="1">
      <stop offset="0%" stop-color="#ffffff" stop-opacity="0.6" />
      <stop offset="100%" stop-color="#ffffff" stop-opacity="0" />
    </linearGradient>
  </defs>
  <rect width="800" height="500" fill="url(#bg)" />
  <circle cx="382.22919616285094" cy="63.56270927505796" r="27.06620876424364" fill="#ffffff" opacity="0.28240948753819084" /><circle cx="679.579865232014" cy="338.6228204843272" r="26.00341969700893" fill="#ffffff" opacity="0.29646995655620245" /><circle cx="622.2655359370755" cy="160.3184117225842" r="47.46045353405475" fill="#ffffff" opacity="0.2197838409465841" /><circle cx="186.51205659269547" cy="162.5453247719681" r="52.72449406170283" fill="#ffffff" opacity="0.21988027463987106" /><circle cx="368.23307613641833" cy="288.45757671017276" r="54.55615664869922" fill="#ffffff" opacity="0.25562685772553817" /><circle cx="778.8471983535138" cy="415.9664270078484" r="26.57228256001665" fill="#ffffff" opacity="0.2751814659071754" /><circle cx="618.7584373260929" cy="75.43901486751491" r="32.31133427426066" fill="#ffffff" opacity="0.13514852432498517" /><circle cx="255.96989037321757" cy="401.7581651014102" r="31.46346636201396" fill="#ffffff" opacity="0.19856623248099775" />
  <circle cx="400" cy="230" r="130" fill="#ffffff" opacity="0.25" />
  <circle cx="400" cy="230" r="96" fill="#ffffff" opacity="0.35" />
  <ellipse cx="400" cy="230" rx="72" ry="52" fill="rgb(248,137,152)" opacity="0.85" />
  <rect x="340" y="176" width="120" height="16" rx="8" fill="#ffffff" opacity="0.8" transform="rotate(-18 400 230)" />
  <rect x="400" y="230" width="150" height="20" rx="10" fill="#ffffff" opacity="0.9" transform="rotate(18 475 240)" />
  <rect width="800" height="180" y="320" fill="url(#shine)" />
  <text x="400" y="395" text-anchor="middle" font-family="Cairo, Arial, sans-serif" font-size="34" font-weight="700" fill="#3c2a20" textLength="560" lengthAdjust="spacingAndGlyphs">شريط ساتان ذهبي - 10 ياردة</text>
  <text x="400" y="445" text-anchor="middle" font-family="Cairo, Arial, sans-serif" font-size="20" font-weight="500" fill="#6c4a33" opacity="0.8">Vanilliano</text>
  <text x="400" y="60" text-anchor="middle" font-family="Cairo, Arial, sans-serif" font-size="16" fill="#6c4a33" opacity="0.5" letter-spacing="4">vanilliano.com</text>
</svg>