<svg xmlns="http://www.w3.org/2000/svg" width="800" height="500" viewBox="0 0 800 500">
  <defs>
    <linearGradient id="bg" x1="0" y1="0" x2="1" y2="1">
      <stop offset="0%" stop-color="#faf6f0" />
      <stop offset="55%" stop-color="#eaddd0" />
      <stop offset="100%" stop-color="rgb(139,76,27)" />
    </linearGradient>
    <linearGradient id="shine" x1="0" y1="0" x2="0" y2="1">
      <stop offset="0%" stop-color="#ffffff" stop-opacity="0.6" />
      <stop offset="100%" stop-color="#ffffff" stop-opacity="0" />
    </linearGradient>
  </defs>
  <rect width="800" height="500" fill="url(#bg)" />
  <circle cx="723.0785450048456" cy="449.1041162668013" r="37.33601482696824" fill="#ffffff" opacity="0.2560347037407603" /><circle cx="218.63201057706868" cy="179.96525854991754" r="46.589308001057084" fill="#ffffff" opacity="0.20088698914066322" /><circle cx="610.6160391607597" cy="43.879552921456394" r="53.09409780480215" fill="#ffffff" opacity="0.1252100061319204" /><circle cx="26.19723904478725" cy="409.9397919788471" r="50.76920244528238" fill="#ffffff" opacity="0.20157035960231717" /><circle cx="332.90693539583225" cy="439.574016444121" r="49.26655533799329" fill="#ffffff" opacity="0.2942085918087877" /><circle cx="666.4989453298655" cy="138.24031895968847" r="23.329472142490815" fill="#ffffff" opacity="0.21060287326906296" /><circle cx="205.4731784295059" cy="307.29463655207894" r="53.31479864095956" fill="#ffffff" opacity="0.23772009210653405" /><circle cx="368.3741546607658" cy="214.74105860413027" r="34.65879267090564" fill="#ffffff" opacity="0.23209441831156621" />
  <circle cx="400" cy="230" r="130" fill="#ffffff" opacity="0.25" />
  <circle cx="400" cy="230" r="96" fill="#ffffff" opacity="0.35" />
  <ellipse cx="400" cy="230" rx="72" ry="52" fill="rgb(187,102,37)" opacity="0.85" />
  <rect x="340" y="176" width="120" height="16" rx="8" fill="#ffffff" opacity="0.8" transform="rotate(-18 400 230)" />
  <rect x="400" y="230" width="150" height="20" rx="10" fill="#ffffff" opacity="0.9" transform="rotate(18 475 240)" />
  <rect width="800" height="180" y="320" fill="url(#shine)" />
  <text x="400" y="395" text-anchor="middle" font-family="Cairo, Arial, sans-serif" font-size="34" font-weight="700" fill="#3c2a20" textLength="560" lengthAdjust="spacingAndGlyphs">اوراق تغليف فاخرة - 10 أوراق</text>
  <text x="400" y="445" text-anchor="middle" font-family="Cairo, Arial, sans-serif" font-size="20" font-weight="500" fill="#6c4a33" opacity="0.8">Vanilliano</text>
  <text x="400" y="60" text-anchor="middle" font-family="Cairo, Arial, sans-serif" font-size="16" fill="#6c4a33" opacity="0.5" letter-spacing="4">vanilliano.com</text>
</svg>